<?xml version="1.0" encoding="utf-8"?>
<!-- Generator: Adobe Illustrator 16.0.0, SVG Export Plug-In . SVG Version: 6.00 Build 0)  -->
<!DOCTYPE svg PUBLIC "-//W3C//DTD SVG 1.1//EN" "http://www.w3.org/Graphics/SVG/1.1/DTD/svg11.dtd">
<svg version="1.1" id="Layer_1" xmlns="http://www.w3.org/2000/svg" xmlns:xlink="http://www.w3.org/1999/xlink" x="0px" y="0px"
	 width="17px" height="14.229px" viewBox="0 0 17 14.229" preserveAspectRatio="xMidYMid meet" enable-background="new 0 0 17 14.229" xml:space="preserve">
<g>
	<path fill="#92A6B8" d="M16.5,3H12V0.5C12,0.224,11.775,0,11.5,0h-6C5.224,0,5,0.224,5,0.5V3H0.5C0.224,3,0,3.224,0,3.5v10
		C0,13.776,0.224,14,0.5,14h16c0.275,0,0.5-0.225,0.5-0.5v-10C17,3.224,16.775,3,16.5,3z M6,1h5v2H6V1z M16,13H1V4h15V13z"/>
	<polygon fill="#92A6B8" points="8,10.584 9,10.584 9,8.834 10.75,8.834 10.75,7.834 9,7.834 9,6.084 8,6.084 8,7.834 6.25,7.834 
		6.25,8.834 8,8.834 	"/>
</g>
</svg>
